{"accessors" : [{"bufferView" : 0, "byteOffset" : 0, "componentType" : 5123, "count" : 6, "type" : "SCALAR", "max" : [4], "min" : [0]}, {"bufferView" : 1, "byteOffset" : 0, "componentType" : 5126, "count" : 5, "type" : "VEC3", "max" : [7.5, 0, 7.5], "min" : [-7.5, 0, -7.5], "name" : "POSITION"}, {"bufferView" : 1, "byteOffset" : 12, "componentType" : 5126, "count" : 5, "type" : "VEC3", "max" : [0, 1.0000044107437134, -0], "min" : [0, 1.0000044107437134, -0], "name" : "NORMAL"}, {"bufferView" : 1, "byteOffset" : 24, "componentType" : 5126, "count" : 5, "type" : "VEC2", "max" : [1, 1], "min" : [0, 0], "name" : "TEXCOORD_0"}, {"bufferView" : 0, "byteOffset" : 12, "componentType" : 5123, "count" : 408, "type" : "SCALAR", "max" : [329], "min" : [0]}, {"bufferView" : 2, "byteOffset" : 0, "componentType" : 5126, "count" : 330, "type" : "VEC3", "max" : [0.3055102229118347, 0.8757036924362183, 0.994750440120697], "min" : [-0.07889701426029205, 0.42194169759750366, 0.0008358198683708906], "name" : "POSITION"}, {"bufferView" : 2, "byteOffset" : 12, "componentType" : 5126, "count" : 330, "type" : "VEC3", "max" : [0.9978896975517273, 0.9791316986083984, 0.7735897302627563], "min" : [-0.9967470169067383, -0.9106380343437195, -0.9770854115486145], "name" : "NORMAL"}, {"bufferView" : 0, "byteOffset" : 828, "componentType" : 5123, "count" : 1743, "type" : "SCALAR", "max" : [1413], "min" : [0]}, {"bufferView" : 3, "byteOffset" : 0, "componentType" : 5126, "count" : 1414, "type" : "VEC3", "max" : [0.5497364401817322, 0.796233057975769, 2.9618271923936845E-07], "min" : [-0.34999993443489075, 0.10000000894069672, -0.9999996423721313], "name" : "POSITION"}, {"bufferView" : 3, "byteOffset" : 12, "componentType" : 5126, "count" : 1414, "type" : "VEC3", "max" : [1.0000044107437134, 1.0000044107437134, 0.7071098685264587], "min" : [-1.0000044107437134, -0.9991511106491089, -1.0000044107437134], "name" : "NORMAL"}, {"bufferView" : 0, "byteOffset" : 4316, "componentType" : 5123, "count" : 5424, "type" : "SCALAR", "max" : [4481], "min" : [0]}, {"bufferView" : 4, "byteOffset" : 0, "componentType" : 5126, "count" : 4482, "type" : "VEC3", "max" : [0.5346385836601257, 0.14381569623947144, -0.8554272651672363], "min" : [-0.34707024693489075, 0.002337748184800148, -0.9954949617385864], "name" : "POSITION"}, {"bufferView" : 4, "byteOffset" : 12, "componentType" : 5126, "count" : 4482, "type" : "VEC3", "max" : [0.9901045560836792, 1.0000044107437134, 0.9901045560836792], "min" : [-0.9901045560836792, -0.7964625358581543, -0.9901045560836792], "name" : "NORMAL"}, {"bufferView" : 0, "byteOffset" : 15164, "componentType" : 5123, "count" : 636, "type" : "SCALAR", "max" : [530], "min" : [0]}, {"bufferView" : 5, "byteOffset" : 0, "componentType" : 5126, "count" : 531, "type" : "VEC3", "max" : [0.5346385836601257, 0.002337748184800148, -0.935564398765564], "min" : [-0.34707024693489075, 0.00013469113036990166, -0.9954949617385864], "name" : "POSITION"}, {"bufferView" : 5, "byteOffset" : 12, "componentType" : 5126, "count" : 531, "type" : "VEC3", "max" : [0.9901045560836792, 0.131907656788826, 0.9901045560836792], "min" : [-0.9901045560836792, -0.7071230411529541, -0.9901045560836792], "name" : "NORMAL"}, {"bufferView" : 0, "byteOffset" : 16436, "componentType" : 5123, "count" : 252, "type" : "SCALAR", "max" : [197], "min" : [0]}, {"bufferView" : 6, "byteOffset" : 0, "componentType" : 5126, "count" : 198, "type" : "VEC3", "max" : [0.12117204070091248, 0.5420190095901489, 1.005180835723877], "min" : [-0.40567970275878906, 0.42881885170936584, 0.7769207954406738], "name" : "POSITION"}, {"bufferView" : 6, "byteOffset" : 12, "componentType" : 5126, "count" : 198, "type" : "VEC3", "max" : [0.8527460098266602, 0.9975697994232178, 1.0000044107437134], "min" : [-1.0000044107437134, -0.9730901718139648, -0.999992847442627], "name" : "NORMAL"}, {"bufferView" : 0, "byteOffset" : 16940, "componentType" : 5123, "count" : 444, "type" : "SCALAR", "max" : [352], "min" : [0]}, {"bufferView" : 7, "byteOffset" : 0, "componentType" : 5126, "count" : 353, "type" : "VEC3", "max" : [0.05102469027042389, 0.48817119002342224, 1.001685619354248], "min" : [-0.5610142946243286, 0.30088332295417786, 0.001083509298041463], "name" : "POSITION"}, {"bufferView" : 7, "byteOffset" : 12, "componentType" : 5126, "count" : 353, "type" : "VEC3", "max" : [0.8817704319953918, 1.0000044107437134, 0.8544042110443115], "min" : [-0.8201794624328613, -1.0000044107437134, -0.9105621576309204], "name" : "NORMAL"}], "asset" : {"generator" : "Aspose.3D 23.9.0", "version" : "2.0"}, "buffers" : [{"uri" : "data:application/octet-stream;base64,", "byteLength" : 231820}], "bufferViews" : [{"buffer" : 0, "byteOffset" : 0, "byteLength" : 17828, "target" : 34963}, {"buffer" : 0, "byteOffset" : 17832, "byteLength" : 192, "byteStride" : 32, "target" : 34962}, {"buffer" : 0, "byteOffset" : 18028, "byteLength" : 9792, "byteStride" : 24, "target" : 34962}, {"buffer" : 0, "byteOffset" : 27824, "byteLength" : 41832, "byteStride" : 24, "target" : 34962}, {"buffer" : 0, "byteOffset" : 69660, "byteLength" : 130176, "byteStride" : 24, "target" : 34962}, {"buffer" : 0, "byteOffset" : 199840, "byteLength" : 15264, "byteStride" : 24, "target" : 34962}, {"buffer" : 0, "byteOffset" : 215108, "byteLength" : 6048, "byteStride" : 24, "target" : 34962}, {"buffer" : 0, "byteOffset" : 221160, "byteLength" : 10656, "byteStride" : 24, "target" : 34962}], "materials" : [{"name" : "Material", "pbrMetallicRoughness" : {"baseColorFactor" : [0.019449254497885704, 0.007928154431283474, 0.001959860557690263, 1], "metallicFactor" : 0, "roughnessFactor" : 0.4000000059604645}, "emissiveFactor" : [0, 0, 0], "alphaMode" : "OPAQUE", "doubleSided" : true}, {"name" : "Material", "pbrMetallicRoughness" : {"baseColorFactor" : [0.019449254497885704, 0.007928154431283474, 0.001959860557690263, 1], "metallicFactor" : 0, "roughnessFactor" : 0.4000000059604645}, "emissiveFactor" : [0, 0, 0], "alphaMode" : "OPAQUE", "doubleSided" : true}, {"name" : "Material.001", "pbrMetallicRoughness" : {"baseColorFactor" : [1, 1, 1, 1], "metallicFactor" : 1, "roughnessFactor" : 1}, "emissiveFactor" : [0, 0, 0], "alphaMode" : "OPAQUE", "doubleSided" : true}, {"name" : "negro", "pbrMetallicRoughness" : {"baseColorFactor" : [0, 0, 0, 1], "metallicFactor" : 0, "roughnessFactor" : 0.5}, "emissiveFactor" : [0, 0, 0], "alphaMode" : "OPAQUE", "doubleSided" : true}, {"name" : "Material", "pbrMetallicRoughness" : {"baseColorFactor" : [0.019449254497885704, 0.007928154431283474, 0.001959860557690263, 1], "metallicFactor" : 0, "roughnessFactor" : 0.4000000059604645}, "emissiveFactor" : [0, 0, 0], "alphaMode" : "OPAQUE", "doubleSided" : true}, {"name" : "Material", "pbrMetallicRoughness" : {"baseColorFactor" : [0.019449254497885704, 0.007928154431283474, 0.001959860557690263, 1], "metallicFactor" : 0, "roughnessFactor" : 0.4000000059604645}, "emissiveFactor" : [0, 0, 0], "alphaMode" : "OPAQUE", "doubleSided" : true}], "meshes" : [{"primitives" : [{"attributes" : {"POSITION" : 1, "NORMAL" : 2, "TEXCOORD_0" : 3}, "indices" : 0, "mode" : 4}]}, {"primitives" : [{"attributes" : {"POSITION" : 5, "NORMAL" : 6}, "indices" : 4, "material" : 0, "mode" : 4}]}, {"primitives" : [{"attributes" : {"POSITION" : 8, "NORMAL" : 9}, "indices" : 7, "material" : 1, "mode" : 4}, {"attributes" : {"POSITION" : 11, "NORMAL" : 12}, "indices" : 10, "material" : 2, "mode" : 4}, {"attributes" : {"POSITION" : 14, "NORMAL" : 15}, "indices" : 13, "material" : 3, "mode" : 4}]}, {"primitives" : [{"attributes" : {"POSITION" : 17, "NORMAL" : 18}, "indices" : 16, "material" : 4, "mode" : 4}]}, {"primitives" : [{"attributes" : {"POSITION" : 20, "NORMAL" : 21}, "indices" : 19, "material" : 5, "mode" : 4}]}], "nodes" : [{"mesh" : 0, "name" : "Plane"}, {"mesh" : 1, "name" : "espaldar sofa"}, {"matrix" : [-1, 0, 1.279515686292143E-06, 0, 0, 1, 0, 0, -1.279515686292143E-06, 0, -1, 0, 0, 0, 0, 1], "mesh" : 2, "name" : "sofa-base"}, {"mesh" : 3, "name" : "sofa-brazos"}, {"mesh" : 4, "name" : "sofa-cojin"}], "scene" : 0, "scenes" : [{"nodes" : [0, 1, 2, 3, 4]}]}